<svg width="40" height="40" viewBox="0 0 40 40" fill="none" xmlns="http://www.w3.org/2000/svg">
<path d="M33.125 21.5C33.125 18.3787 30.0793 11.9416 25.8336 8C24.6148 9.13086 23.5145 10.3197 22.5395 11.5139C20.9422 9.31367 18.9617 7.08184 16.7188 5C10.9613 10.342 6.875 17.3023 6.875 21.5C6.875 28.9561 12.7514 35 20 35C20.0311 35 20.0609 34.9953 20.0926 34.9953C20.1113 34.9953 20.1277 35 20.1465 35C20.2566 35 20.3639 34.9795 20.4734 34.9754C27.5012 34.717 33.125 28.7914 33.125 21.5ZM8.75 21.5C8.75 18.5574 11.5338 12.8609 16.7217 7.60801C18.326 9.21641 19.7943 10.9244 21.0219 12.616L22.4521 14.5859L23.9914 12.6998C24.5686 11.9928 25.1744 11.3096 25.8072 10.652C29.1242 14.365 31.25 19.3988 31.25 21.5C31.25 24.7045 29.9885 27.6102 27.9523 29.7154C28.6854 27.6477 28.5898 25.267 27.4818 23.1518C27.2819 22.7705 27.0703 22.3955 26.8473 22.0273L25.5213 19.8359L23.8326 21.7619L22.3174 23.4904C20.8566 21.6283 18.8422 19.0666 18.585 18.7713L17.1406 17.1078L15.7297 18.7994C13.2125 21.8164 11.5625 23.9967 11.5625 26.7037C11.5625 27.8182 11.7746 28.8518 12.135 29.7969C10.049 27.6857 8.75 24.7479 8.75 21.5ZM20.0902 33.1203C16.4176 33.0951 13.4375 30.6564 13.4375 26.7037C13.4375 24.7244 14.6838 22.9801 17.1693 20C17.5244 20.409 22.2365 26.4266 22.2365 26.4266L25.2424 22.9977C25.4454 23.3332 25.6382 23.6748 25.8207 24.0219C27.2223 26.6973 26.6311 30.1215 24.1062 31.8875C23.0738 32.61 21.8129 33.0424 20.4518 33.1021C20.3311 33.1062 20.2121 33.1191 20.0902 33.1203Z" fill="#5B707F"/>
</svg>
